<?xml version="1.0" encoding="UTF-8" standalone="no"?>
<!-- Generator: Adobe Illustrator 16.0.0, SVG Export Plug-In . SVG Version: 6.00 Build 0)  -->

<svg
   version="1.1"
   id="Capa_1"
   x="0px"
   y="0px"
   width="468.067px"
   height="468.067px"
   viewBox="0 0 468.067 468.067"
   style="enable-background:new 0 0 468.067 468.067;"
   xml:space="preserve"
   sodipodi:docname="close-icon.svg"
   inkscape:version="1.1 (c68e22c387, 2021-05-23)"
   xmlns:inkscape="http://www.inkscape.org/namespaces/inkscape"
   xmlns:sodipodi="http://sodipodi.sourceforge.net/DTD/sodipodi-0.dtd"
   xmlns="http://www.w3.org/2000/svg"
   xmlns:svg="http://www.w3.org/2000/svg"><defs
   id="defs1200" /><sodipodi:namedview
   id="namedview1198"
   pagecolor="#ffffff"
   bordercolor="#666666"
   borderopacity="1.0"
   inkscape:pageshadow="2"
   inkscape:pageopacity="0.0"
   inkscape:pagecheckerboard="0"
   showgrid="false"
   inkscape:zoom="1.6386543"
   inkscape:cx="234.03349"
   inkscape:cy="234.03349"
   inkscape:window-width="1920"
   inkscape:window-height="1017"
   inkscape:window-x="-8"
   inkscape:window-y="584"
   inkscape:window-maximized="1"
   inkscape:current-layer="Capa_1" />
<g
   id="g1165"
   style="fill:#ffffff;fill-opacity:1">
	<path
   d="M 431.38,0.225 H 36.685 C 16.458,0.225 0,16.668 0,36.898 v 394.274 c 0,20.215 16.458,36.671 36.685,36.671 H 431.38 c 20.232,0 36.688,-16.456 36.688,-36.671 V 36.898 C 468.062,16.668 451.612,0.225 431.38,0.225 Z m -50.124,326.699 c 14.233,14.239 14.233,37.321 0,51.53 -7.116,7.11 -16.455,10.681 -25.771,10.681 -9.327,0 -18.643,-3.57 -25.747,-10.681 l -95.708,-95.695 -95.71,95.689 c -7.105,7.11 -16.42,10.681 -25.742,10.681 -9.327,0 -18.648,-3.57 -25.765,-10.681 -14.236,-14.215 -14.236,-37.291 0,-51.524 l 95.678,-95.689 -95.678,-95.704 c -14.236,-14.236 -14.236,-37.303 0,-51.521 14.227,-14.233 37.271,-14.233 51.506,0 l 95.71,95.692 95.708,-95.692 c 14.232,-14.233 37.285,-14.233 51.518,0 14.233,14.218 14.233,37.285 0,51.521 l -95.683,95.704 z"
   id="path1163"
   style="fill:#ffffff;fill-opacity:1" />
</g>
<g
   id="g1167"
   style="fill:#ffffff;fill-opacity:1">
</g>
<g
   id="g1169"
   style="fill:#ffffff;fill-opacity:1">
</g>
<g
   id="g1171"
   style="fill:#ffffff;fill-opacity:1">
</g>
<g
   id="g1173"
   style="fill:#ffffff;fill-opacity:1">
</g>
<g
   id="g1175"
   style="fill:#ffffff;fill-opacity:1">
</g>
<g
   id="g1177"
   style="fill:#ffffff;fill-opacity:1">
</g>
<g
   id="g1179"
   style="fill:#ffffff;fill-opacity:1">
</g>
<g
   id="g1181"
   style="fill:#ffffff;fill-opacity:1">
</g>
<g
   id="g1183"
   style="fill:#ffffff;fill-opacity:1">
</g>
<g
   id="g1185"
   style="fill:#ffffff;fill-opacity:1">
</g>
<g
   id="g1187"
   style="fill:#ffffff;fill-opacity:1">
</g>
<g
   id="g1189"
   style="fill:#ffffff;fill-opacity:1">
</g>
<g
   id="g1191"
   style="fill:#ffffff;fill-opacity:1">
</g>
<g
   id="g1193"
   style="fill:#ffffff;fill-opacity:1">
</g>
<g
   id="g1195"
   style="fill:#ffffff;fill-opacity:1">
</g>
</svg>
