<?xml version="1.0" encoding="UTF-8" standalone="no"?>
<!-- Generator: Adobe Illustrator 18.0.0, SVG Export Plug-In . SVG Version: 6.00 Build 0)  -->

<svg
   version="1.1"
   id="Capa_1"
   x="0px"
   y="0px"
   viewBox="0 0 476.664 476.664"
   style="enable-background:new 0 0 476.664 476.664;"
   xml:space="preserve"
   sodipodi:docname="folder-icon.svg"
   inkscape:version="1.1 (c68e22c387, 2021-05-23)"
   xmlns:inkscape="http://www.inkscape.org/namespaces/inkscape"
   xmlns:sodipodi="http://sodipodi.sourceforge.net/DTD/sodipodi-0.dtd"
   xmlns="http://www.w3.org/2000/svg"
   xmlns:svg="http://www.w3.org/2000/svg"><defs
   id="defs4618" /><sodipodi:namedview
   id="namedview4616"
   pagecolor="#ffffff"
   bordercolor="#666666"
   borderopacity="1.0"
   inkscape:pageshadow="2"
   inkscape:pageopacity="0.0"
   inkscape:pagecheckerboard="0"
   showgrid="false"
   inkscape:zoom="1.6090999"
   inkscape:cx="238.332"
   inkscape:cy="238.332"
   inkscape:window-width="1920"
   inkscape:window-height="1017"
   inkscape:window-x="-8"
   inkscape:window-y="584"
   inkscape:window-maximized="1"
   inkscape:current-layer="Capa_1" />
<g
   id="g4583"
   style="fill:#ffffff;fill-opacity:1">
	<path
   d="m 454.571,138.49 c 2.452,0 4.847,0.418 7.249,0.749 v -35.784 c 0,-12.205 -9.888,-22.096 -22.087,-22.096 H 222.557 c -18.598,0 -33.681,-15.082 -33.681,-33.679 v -2.522 c 0,-12.206 -9.888,-22.096 -22.095,-22.096 H 36.931 c -12.2,0 -22.087,9.89 -22.087,22.096 v 94.081 c 2.402,-0.331 4.798,-0.749 7.249,-0.749 z"
   id="path4579"
   style="fill:#ffffff;fill-opacity:1" />
	<path
   d="m 470.631,177.686 c -4.175,-4.413 -9.983,-6.919 -16.06,-6.919 H 22.093 c -6.076,0 -11.884,2.506 -16.059,6.919 -4.177,4.42 -6.345,10.362 -5.998,16.431 l 13.616,238.65 c 0.67,11.694 10.347,20.835 22.057,20.835 h 405.246 c 11.71,0 21.387,-9.141 22.057,-20.835 l 13.616,-238.65 c 0.347,-6.069 -1.82,-12.011 -5.997,-16.431 z"
   id="path4581"
   style="fill:#ffffff;fill-opacity:1" />
</g>
<g
   id="g4585"
   style="fill:#ffffff;fill-opacity:1">
</g>
<g
   id="g4587"
   style="fill:#ffffff;fill-opacity:1">
</g>
<g
   id="g4589"
   style="fill:#ffffff;fill-opacity:1">
</g>
<g
   id="g4591"
   style="fill:#ffffff;fill-opacity:1">
</g>
<g
   id="g4593"
   style="fill:#ffffff;fill-opacity:1">
</g>
<g
   id="g4595"
   style="fill:#ffffff;fill-opacity:1">
</g>
<g
   id="g4597"
   style="fill:#ffffff;fill-opacity:1">
</g>
<g
   id="g4599"
   style="fill:#ffffff;fill-opacity:1">
</g>
<g
   id="g4601"
   style="fill:#ffffff;fill-opacity:1">
</g>
<g
   id="g4603"
   style="fill:#ffffff;fill-opacity:1">
</g>
<g
   id="g4605"
   style="fill:#ffffff;fill-opacity:1">
</g>
<g
   id="g4607"
   style="fill:#ffffff;fill-opacity:1">
</g>
<g
   id="g4609"
   style="fill:#ffffff;fill-opacity:1">
</g>
<g
   id="g4611"
   style="fill:#ffffff;fill-opacity:1">
</g>
<g
   id="g4613"
   style="fill:#ffffff;fill-opacity:1">
</g>
</svg>
