<svg xmlns="http://www.w3.org/2000/svg" width="16" height="16" fill="none" viewBox="0 0 16 16"><path d="M4.595 1a2 2 0 0 0-2 2v10c0 1.026.776 1.886 1.797 1.99l.203.01h4.554l.002-1.152H7.628a1.56 1.56 0 0 1-1.125-.494 1.5 1.5 0 0 1-.379-1.012 1.5 1.5 0 0 1 .379-1.01 1.56 1.56 0 0 1 1.125-.494h1.523V9.317c0-.82.685-1.506 1.504-1.506.82 0 1.504.687 1.504 1.506v1.521h1.246l-.002-5.918h-1.412a2.51 2.51 0 0 1-2.5-2.5V1Zm5.896.135V2.42c0 .835.666 1.5 1.5 1.5h1.282a1 1 0 0 0-.163-.213l-2.414-2.414a1 1 0 0 0-.205-.158m.162 7.676a.505.505 0 0 0-.504.506v2.521H7.626c-.673 0-.673 1.01 0 1.01h2.523v2.522c.001.673 1.01.673 1.01 0v-2.522h2.522c.672 0 .672-1.01 0-1.01h-2.522V9.317a.507.507 0 0 0-.506-.506" style="fill:#e0e0e0;fill-opacity:1" transform="translate(-.39 -.305)"/></svg>