<svg xmlns="http://www.w3.org/2000/svg" width="16" height="16" fill="none" viewBox="0 0 16 16"><path d="M4.596 1a2 2 0 0 0-2 2v10c0 1.026.776 1.886 1.797 1.99l.203.01h2.69q-.002-.136.025-.275l.332-1.657c.058-.292.201-.56.412-.771l2.695-2.695V9.6l1.053-1.051.65-.65c.262-.263.602-.406.951-.432V4.92h-1.412a2.51 2.51 0 0 1-2.5-2.5V1Zm5.896.135V2.42c0 .834.666 1.5 1.5 1.5h1.281a1 1 0 0 0-.162-.213l-2.414-2.414a1 1 0 0 0-.205-.158" style="fill:#e0e0e0;fill-opacity:1" transform="translate(-.976 -.269)"/><path fill="#e0e0e0" d="m13.85 12.016-3.04 3.04a.5.5 0 0 1-.262.14l-1.657.331a.513.513 0 0 1-.602-.603l.33-1.656a.5.5 0 0 1 .14-.262l3.04-3.04Zm-.693-3.407a.513.513 0 0 1 .724 0l1.326 1.325a.513.513 0 0 1 0 .725l-.995.994-2.05-2.05z" style="display:inline;fill:#e0e0e0;fill-opacity:1;stroke:none;stroke-width:1;stroke-dasharray:none;stroke-opacity:1;paint-order:stroke fill markers" transform="translate(-.976 -.269)"/></svg>