<?xml version="1.0" encoding="UTF-8" standalone="no"?>
<!-- Generator: Adobe Illustrator 19.0.0, SVG Export Plug-In . SVG Version: 6.00 Build 0)  -->

<svg
   version="1.1"
   id="Layer_1"
   x="0px"
   y="0px"
   viewBox="0 0 512.002 512.002"
   style="enable-background:new 0 0 512.002 512.002;"
   xml:space="preserve"
   sodipodi:docname="reverse-icon.svg"
   inkscape:version="1.1 (c68e22c387, 2021-05-23)"
   xmlns:inkscape="http://www.inkscape.org/namespaces/inkscape"
   xmlns:sodipodi="http://sodipodi.sourceforge.net/DTD/sodipodi-0.dtd"
   xmlns="http://www.w3.org/2000/svg"
   xmlns:svg="http://www.w3.org/2000/svg"><defs
   id="defs5091" /><sodipodi:namedview
   id="namedview5089"
   pagecolor="#ffffff"
   bordercolor="#666666"
   borderopacity="1.0"
   inkscape:pageshadow="2"
   inkscape:pageopacity="0.0"
   inkscape:pagecheckerboard="0"
   showgrid="false"
   inkscape:zoom="1.498041"
   inkscape:cx="256.001"
   inkscape:cy="256.001"
   inkscape:window-width="1920"
   inkscape:window-height="1017"
   inkscape:window-x="-8"
   inkscape:window-y="584"
   inkscape:window-maximized="1"
   inkscape:current-layer="Layer_1" />
<g
   id="g5038"
   transform="scale(1.1068743,1)"
   style="fill:#ffffff;fill-opacity:1">
	<g
   id="g5036"
   style="fill:#ffffff;fill-opacity:1">
		<path
   d="M 362.668,128.004 H 26.608 c -12.382,0 -23.757,8.346 -26.112,20.497 -3.174,16.341 9.318,30.703 25.105,30.703 h 337.067 c 2.355,0 4.267,-1.911 4.267,-4.267 V 132.27 c 0,-2.354 -1.912,-4.266 -4.267,-4.266 z"
   id="path5034"
   style="fill:#ffffff;fill-opacity:1" />
	</g>
</g>
<g
   id="g5044"
   style="fill:#ffffff;fill-opacity:1">
	<g
   id="g5042"
   style="fill:#ffffff;fill-opacity:1">
		<path
   d="M 508.98,147.085 398.047,53.218 c -2.534,-2.142 -6.084,-2.628 -9.105,-1.229 -3.012,1.408 -4.941,4.42 -4.941,7.748 V 247.47 c 0,3.328 1.929,6.34 4.941,7.74 1.152,0.538 2.372,0.794 3.593,0.794 1.98,0 3.942,-0.691 5.513,-2.014 l 110.933,-93.867 c 1.92,-1.63 3.021,-4.011 3.021,-6.519 0,-2.508 -1.102,-4.889 -3.022,-6.519 z"
   id="path5040"
   style="fill:#ffffff;fill-opacity:1" />
	</g>
</g>
<g
   id="g5050"
   style="fill:#ffffff;fill-opacity:1">
	<g
   id="g5048"
   style="fill:#ffffff;fill-opacity:1">
		<path
   d="m 123.06,256.798 c -3.021,-1.399 -6.571,-0.913 -9.105,1.229 L 3.022,351.893 c -1.92,1.621 -3.021,4.002 -3.021,6.511 0,2.509 1.101,4.89 3.021,6.519 l 110.933,93.867 c 1.57,1.323 3.533,2.014 5.513,2.014 1.22,0 2.441,-0.256 3.593,-0.794 3.012,-1.399 4.941,-4.412 4.941,-7.74 V 264.538 c -0.001,-3.328 -1.929,-6.341 -4.942,-7.74 z"
   id="path5046"
   style="fill:#ffffff;fill-opacity:1" />
	</g>
</g>
<g
   id="g5056"
   transform="matrix(1.0939585,0,0,1,-48.106963,0)"
   style="fill:#ffffff;fill-opacity:1">
	<g
   id="g5054"
   style="fill:#ffffff;fill-opacity:1">
		<path
   d="m 511.506,353.301 c -2.364,-12.151 -13.739,-20.497 -26.112,-20.497 h -336.06 c -2.355,0 -4.267,1.911 -4.267,4.267 v 42.667 c 0,2.355 1.911,4.267 4.267,4.267 h 337.067 c 15.787,-10e-4 28.28,-14.362 25.105,-30.704 z"
   id="path5052"
   style="fill:#ffffff;fill-opacity:1" />
	</g>
</g>
<g
   id="g5058"
   style="fill:#ffffff;fill-opacity:1">
</g>
<g
   id="g5060"
   style="fill:#ffffff;fill-opacity:1">
</g>
<g
   id="g5062"
   style="fill:#ffffff;fill-opacity:1">
</g>
<g
   id="g5064"
   style="fill:#ffffff;fill-opacity:1">
</g>
<g
   id="g5066"
   style="fill:#ffffff;fill-opacity:1">
</g>
<g
   id="g5068"
   style="fill:#ffffff;fill-opacity:1">
</g>
<g
   id="g5070"
   style="fill:#ffffff;fill-opacity:1">
</g>
<g
   id="g5072"
   style="fill:#ffffff;fill-opacity:1">
</g>
<g
   id="g5074"
   style="fill:#ffffff;fill-opacity:1">
</g>
<g
   id="g5076"
   style="fill:#ffffff;fill-opacity:1">
</g>
<g
   id="g5078"
   style="fill:#ffffff;fill-opacity:1">
</g>
<g
   id="g5080"
   style="fill:#ffffff;fill-opacity:1">
</g>
<g
   id="g5082"
   style="fill:#ffffff;fill-opacity:1">
</g>
<g
   id="g5084"
   style="fill:#ffffff;fill-opacity:1">
</g>
<g
   id="g5086"
   style="fill:#ffffff;fill-opacity:1">
</g>
</svg>
