<?xml version="1.0" encoding="UTF-8" standalone="no"?>
<!-- Generator: Adobe Illustrator 19.0.0, SVG Export Plug-In . SVG Version: 6.00 Build 0)  -->

<svg
   version="1.1"
   id="Layer_1"
   x="0px"
   y="0px"
   viewBox="0 0 512 512"
   style="enable-background:new 0 0 512 512;"
   xml:space="preserve"
   sodipodi:docname="save-icon.svg"
   inkscape:version="1.1 (c68e22c387, 2021-05-23)"
   xmlns:inkscape="http://www.inkscape.org/namespaces/inkscape"
   xmlns:sodipodi="http://sodipodi.sourceforge.net/DTD/sodipodi-0.dtd"
   xmlns="http://www.w3.org/2000/svg"
   xmlns:svg="http://www.w3.org/2000/svg"><defs
   id="defs5404" /><sodipodi:namedview
   id="namedview5402"
   pagecolor="#000000"
   bordercolor="#666666"
   borderopacity="1.0"
   inkscape:pageshadow="2"
   inkscape:pageopacity="0"
   inkscape:pagecheckerboard="0"
   showgrid="false"
   inkscape:zoom="1.4980469"
   inkscape:cx="256.66753"
   inkscape:cy="256"
   inkscape:window-width="1920"
   inkscape:window-height="1017"
   inkscape:window-x="-8"
   inkscape:window-y="584"
   inkscape:window-maximized="1"
   inkscape:current-layer="Layer_1" />
<g
   id="g5369"
   style="fill:#ffffff;fill-opacity:1">
	<g
   id="g5367"
   style="fill:#ffffff;fill-opacity:1">
		<g
   id="g5365"
   style="fill:#ffffff;fill-opacity:1">
			<path
   d="m 158.766,146.4 h 151.175 c 6.897,0 12.488,-5.591 12.488,-12.488 V 12.488 C 322.429,5.591 316.838,0 309.941,0 H 158.766 c -6.897,0 -12.488,5.591 -12.488,12.488 v 121.424 c 0,6.897 5.591,12.488 12.488,12.488 z"
   id="path5357"
   style="fill:#ffffff;fill-opacity:1" />
			<rect
   x="126.039"
   y="356.83899"
   width="259.92099"
   height="86.477997"
   id="rect5359"
   style="fill:#ffffff;fill-opacity:1" />
			<rect
   x="126.039"
   y="245.38499"
   width="259.92099"
   height="86.477997"
   id="rect5361"
   style="fill:#ffffff;fill-opacity:1" />
			<path
   d="M 506.505,158.847 C 426.675,79.017 387.937,40.088 368.696,20.948 c -7.877,-7.836 -21.292,-2.254 -21.292,8.856 v 129.083 c 0,6.897 -5.591,12.488 -12.488,12.488 H 133.791 c -6.897,0 -12.488,-5.591 -12.488,-12.488 V 12.487 C 121.303,5.591 115.712,0 108.815,0 H 18.732 C 8.387,0 0,8.387 0,18.732 V 493.269 C 0,503.613 8.387,512 18.732,512 h 474.537 c 10.345,0 18.732,-8.387 18.732,-18.732 V 172.101 c -10e-4,-4.968 -1.983,-9.74 -5.496,-13.254 z m -95.57,296.958 h -10e-4 c 0,6.897 -5.591,12.488 -12.488,12.488 H 113.554 c -6.897,0 -12.488,-5.591 -12.488,-12.488 V 232.9 c 0,-6.897 5.591,-12.488 12.488,-12.488 h 284.893 c 6.897,0 12.488,5.591 12.488,12.488 z"
   id="path5363"
   style="fill:#ffffff;fill-opacity:1" />
		</g>
	</g>
</g>
<g
   id="g5371"
   style="fill:#ffffff;fill-opacity:1">
</g>
<g
   id="g5373"
   style="fill:#ffffff;fill-opacity:1">
</g>
<g
   id="g5375"
   style="fill:#ffffff;fill-opacity:1">
</g>
<g
   id="g5377"
   style="fill:#ffffff;fill-opacity:1">
</g>
<g
   id="g5379"
   style="fill:#ffffff;fill-opacity:1">
</g>
<g
   id="g5381"
   style="fill:#ffffff;fill-opacity:1">
</g>
<g
   id="g5383"
   style="fill:#ffffff;fill-opacity:1">
</g>
<g
   id="g5385"
   style="fill:#ffffff;fill-opacity:1">
</g>
<g
   id="g5387"
   style="fill:#ffffff;fill-opacity:1">
</g>
<g
   id="g5389"
   style="fill:#ffffff;fill-opacity:1">
</g>
<g
   id="g5391"
   style="fill:#ffffff;fill-opacity:1">
</g>
<g
   id="g5393"
   style="fill:#ffffff;fill-opacity:1">
</g>
<g
   id="g5395"
   style="fill:#ffffff;fill-opacity:1">
</g>
<g
   id="g5397"
   style="fill:#ffffff;fill-opacity:1">
</g>
<g
   id="g5399"
   style="fill:#ffffff;fill-opacity:1">
</g>
</svg>
