<?xml version="1.0" encoding="UTF-8" standalone="no"?>
<!-- Uploaded to: SVG Repo, www.svgrepo.com, Transformed by: SVG Repo Mixer Tools -->

<svg
   width="64"
   height="64"
   viewBox="0 0 1.92 1.92"
   fill="none"
   version="1.1"
   id="svg1"
   sodipodi:docname="trash-icon.svg"
   inkscape:version="1.3.2 (091e20e, 2023-11-25, custom)"
   xmlns:inkscape="http://www.inkscape.org/namespaces/inkscape"
   xmlns:sodipodi="http://sodipodi.sourceforge.net/DTD/sodipodi-0.dtd"
   xmlns="http://www.w3.org/2000/svg"
   xmlns:svg="http://www.w3.org/2000/svg">
  <defs
     id="defs1" />
  <sodipodi:namedview
     id="namedview1"
     pagecolor="#ffffff"
     bordercolor="#666666"
     borderopacity="1.0"
     inkscape:showpageshadow="2"
     inkscape:pageopacity="0.0"
     inkscape:pagecheckerboard="0"
     inkscape:deskcolor="#d1d1d1"
     inkscape:zoom="7.79"
     inkscape:cx="35.686778"
     inkscape:cy="37.291399"
     inkscape:window-width="1920"
     inkscape:window-height="1017"
     inkscape:window-x="-8"
     inkscape:window-y="584"
     inkscape:window-maximized="1"
     inkscape:current-layer="svg1" />
  <path
     d="m 0.1920999,0.38405096 h 1.5358002 m -0.38395,0 -0.025974,-0.0779351 c -0.025178,-0.0755249 -0.037771,-0.11328738 -0.061116,-0.14120631 -0.020618,-0.0246544 -0.047092,-0.0437377 -0.077001,-0.0555 -0.033874,-0.0133212 -0.07367,-0.0133212 -0.1532824,-0.0133212 h -0.133154 c -0.079612,0 -0.1194084,0 -0.1532814,0.0133212 -0.029909,0.0117623 -0.056386,0.0308456 -0.077003,0.0555 -0.023348,0.0279189 -0.035935,0.0656814 -0.06111,0.14120628 l -0.025978,0.0779351 m 0.9598751,0 V 1.3631236 c 0,0.1612782 0,0.2419077 -0.031388,0.3035125 -0.027606,0.054185 -0.071655,0.098234 -0.1258396,0.1258397 -0.061605,0.031388 -0.1422342,0.031388 -0.3035125,0.031388 h -0.23037 c -0.1612744,0 -0.2419116,0 -0.3035096,-0.031388 C 0.4871214,1.7648698 0.4430689,1.7208211 0.4154609,1.6666361 0.3840749,1.6050313 0.3840749,1.5244018 0.3840749,1.3631236 V 0.38405096 M 1.151975,0.76800098 V 1.4399136 M 0.768025,0.76800098 V 1.4399136"
     stroke="#ffffff"
     stroke-width="0.191975"
     stroke-linecap="round"
     stroke-linejoin="round"
     id="path1" />
</svg>
