<svg xmlns="http://www.w3.org/2000/svg" width="230" height="75" viewBox="0 0 230 75"><path fill="#fff" d="M15.734 27.038h48.532v22.694H15.734Zm-3.081 23.619-.017 2.182 11.598 9.472 34.932-1.105 8.195-8.367-.018-2.182-3.077-.925H15.734Z" style="stroke-width:.32" transform="translate(-.657 -2.5)"/><path d="M33.662 10.62c-2.846.633-5.662 1.514-8.301 2.843.06 2.331.21 4.565.516 6.833-1.025.657-2.102 1.22-3.06 1.99-.972.748-1.966 1.464-2.847 2.34a55 55 0 0 0-5.542-3.224c-2.068 2.226-4.002 4.629-5.582 7.317 1.241 1.95 2.573 3.908 3.806 5.436v16.502q.046 0 .09.003l10.118.976a1.09 1.09 0 0 1 .981 1.01l.312 4.465 8.825.63.608-4.122a1.09 1.09 0 0 1 1.078-.931h10.673a1.09 1.09 0 0 1 1.077.93l.608 4.122 8.825-.63.312-4.465a1.09 1.09 0 0 1 .981-1.009l10.113-.976a1 1 0 0 1 .09-.003V49.34l.005-.001V34.155a60 60 0 0 0 3.806-5.436c-1.579-2.688-3.514-5.09-5.583-7.317a55 55 0 0 0-5.542 3.224c-.88-.876-1.872-1.592-2.847-2.34-.957-.77-2.035-1.333-3.058-1.99.305-2.268.455-4.502.515-6.833-2.64-1.329-5.455-2.21-8.303-2.843-1.137 1.912-2.177 3.98-3.082 6.004-1.074-.18-2.153-.246-3.233-.259v-.002l-.021.002-.02-.002v.002c-1.083.013-2.16.08-3.234.259-.905-2.023-1.945-4.092-3.084-6.004m17.915 17.467h3.282v3.278h5.758c.543 0 1.067.227 1.438.623a1.97 1.97 0 0 1 .528 1.464c-.15 2.5-1.55 7.455-5.707 10.896a19 19 0 0 0 4.08.43v3.282c-2.885 0-5.534-.525-7.785-1.456-2.102.902-4.64 1.456-7.692 1.456v-3.282q2.106 0 3.929-.41c-2.3-1.918-3.66-4.46-3.66-7.323h3.282c0 2.422 1.548 4.517 4.07 5.913a11.9 11.9 0 0 0 3.327-2.831c1.54-1.883 2.325-3.97 2.667-5.48H45.48v-3.282h6.098zm-27.453 3.259h4.368l7.041 16.706h-4.535l-1.193-3.079h-7.303l-1.217 3.08h-4.368zm2.053 4.224-2.435 6.182h4.822zm13.822 2.756c1.084 0 1.965.8 1.965 1.783v5.613c0 .984-.88 1.783-1.965 1.783-1.083 0-1.961-.799-1.961-1.783v-5.613c0-.984.878-1.783 1.961-1.783" style="fill:#478cbf;stroke-width:.32" transform="translate(-.657 -2.5)"/><path d="m58.268 53.716-.314 4.49a1.09 1.09 0 0 1-1.009 1.01l-10.775.77a1.09 1.09 0 0 1-1.156-.928l-.618-4.191h-8.792l-.618 4.19a1.09 1.09 0 0 1-1.155.929l-10.776-.77a1.09 1.09 0 0 1-1.01-1.01l-.313-4.49-9.096-.876c.004.977.016 2.048.016 2.261 0 9.607 12.188 14.225 27.33 14.279h.037c15.141-.054 27.324-4.672 27.324-14.279 0-.217.013-1.283.018-2.262z" style="fill:#478cbf;stroke-width:.32" transform="translate(-.657 -2.5)"/><text x="84" y="27" fill="#1a1a2e" dominant-baseline="middle" font-family="'-apple-system', BlinkMacSystemFont, 'Segoe UI', Helvetica, Arial, sans-serif" font-size="26" font-weight="600" transform="translate(-.657 -2.5)">Localization</text><text x="84" y="55" fill="#1a1a2e" dominant-baseline="middle" font-family="'-apple-system', BlinkMacSystemFont, 'Segoe UI', Helvetica, Arial, sans-serif" font-size="26" font-weight="600" transform="translate(-.657 -2.5)">Editor</text></svg>