<?xml version="1.0" encoding="UTF-8" standalone="no"?>
<svg
   version="1.1"
   id="Layer_1"
   x="0px"
   y="0px"
   width="200px"
   height="200px"
   viewBox="796 796 200 200"
   enable-background="new 796 796 200 200"
   xml:space="preserve"
   sodipodi:docname="gle-logo.svg"
   inkscape:version="1.1 (c68e22c387, 2021-05-23)"
   xmlns:inkscape="http://www.inkscape.org/namespaces/inkscape"
   xmlns:sodipodi="http://sodipodi.sourceforge.net/DTD/sodipodi-0.dtd"
   xmlns="http://www.w3.org/2000/svg"
   xmlns:svg="http://www.w3.org/2000/svg"><defs
   id="defs15" /><sodipodi:namedview
   id="namedview13"
   pagecolor="#000000"
   bordercolor="#666666"
   borderopacity="1.0"
   inkscape:pageshadow="2"
   inkscape:pageopacity="0"
   inkscape:pagecheckerboard="0"
   showgrid="false"
   inkscape:zoom="3.765"
   inkscape:cx="137.4502"
   inkscape:cy="111.15538"
   inkscape:window-width="1920"
   inkscape:window-height="1017"
   inkscape:window-x="-8"
   inkscape:window-y="584"
   inkscape:window-maximized="1"
   inkscape:current-layer="layer3" />

<g
   inkscape:groupmode="layer"
   id="layer3"
   inkscape:label="Layer 1"
   style="display:inline"><g
     id="g10"
     style="fill:#808080;fill-opacity:1"
     transform="matrix(0.85460124,0,0,0.85460124,130.27728,130.2138)">
	
	<g
   id="g8"
   style="fill:#808080;fill-opacity:1">
		<g
   id="g6"
   style="fill:#808080;fill-opacity:1">
			
		</g>
	</g>
</g><rect
     style="fill:#ffffff;fill-opacity:1;stroke:none;stroke-width:10"
     id="rect907"
     width="151.66003"
     height="70.916336"
     x="820.16998"
     y="855.49536" /><path
     style="fill:#ffffff;fill-opacity:1;stroke:none;stroke-width:1px;stroke-linecap:butt;stroke-linejoin:miter;stroke-opacity:1"
     d="m 810.53906,929.30273 -0.0525,6.82039 36.24384,29.598 109.16335,-3.45286 25.60965,-26.14514 -0.0561,-6.82039 -9.61725,-2.89105 H 820.16998 l -9.63092,2.89105"
     id="path7723" /></g><g
   inkscape:groupmode="layer"
   id="layer4"
   inkscape:label="Layer 2"
   style="display:inline"><g
     fill="#ffffff"
     id="g865"
     transform="matrix(0.2098233,0,0,0.2098233,788.57047,788.05903)"
     style="fill:#478cbf;fill-opacity:1"><path
       id="path857"
       d="M 80.195312,8.1894531 C 71.300478,10.16686 62.501337,12.920064 54.251953,17.072266 c 0.188656,7.284263 0.660593,14.264024 1.615235,21.353515 -3.203679,2.052521 -6.570188,3.814039 -9.5625,6.216797 -3.040351,2.338999 -6.145441,4.576971 -8.898438,7.3125 C 31.90637,48.317313 26.084743,44.8985 20.087891,41.880859 13.623764,48.837593 7.5799806,56.345818 2.6425781,64.748047 6.5228524,70.838959 10.684666,76.960203 14.539062,81.734375 v 41.500005 5.27148 4.79687 c 0.09433,8.4e-4 0.187796,0.003 0.28125,0.0117 l 31.615235,3.04883 c 1.65599,0.15984 2.95307,1.49287 3.068359,3.15234 l 0.97461,13.95508 27.578125,1.96875 1.898437,-12.88086 c 0.246303,-1.66996 1.67996,-2.9082 3.369141,-2.9082 h 33.353511 c 1.68831,0 3.12089,1.23824 3.36719,2.9082 l 1.89844,12.88086 27.57812,-1.96875 0.97461,-13.95508 c 0.11617,-1.65947 1.41237,-2.99163 3.06836,-3.15234 l 31.60157,-3.04883 c 0.0934,-0.009 0.18692,-0.0108 0.28125,-0.0117 v -4.11523 l 0.0137,-0.004 V 81.734375 c 4.45171,-5.604229 8.6668,-11.785335 11.89648,-16.986328 -4.93565,-8.402229 -10.98314,-15.910454 -17.44726,-22.867188 -5.99511,3.017641 -11.81848,6.436454 -17.31836,10.074219 -2.75213,-2.735529 -5.85177,-4.973501 -8.89649,-7.3125 -2.99144,-2.402758 -6.36103,-4.164276 -9.55859,-6.216797 0.95202,-7.089491 1.4218,-14.069252 1.61133,-21.353515 -8.25026,-4.152202 -17.04807,-6.905406 -25.94727,-8.8828129 -3.55304,5.9715229 -6.80295,12.4380039 -9.63281,18.7597659 -3.35565,-0.56073 -6.72582,-0.768417 -10.10156,-0.808594 v -0.0059 c -0.0236,0 -0.0463,0.0059 -0.0664,0.0059 -0.02096,0 -0.04349,-0.0059 -0.06445,-0.0059 v 0.0059 c -3.381854,0.04018 -6.748944,0.247864 -10.105469,0.808594 C 87.001923,20.627457 83.753597,14.160976 80.195312,8.1894531 Z M 136.17773,62.773438 h 10.25586 v 10.242187 h 17.99414 c 1.69724,0 3.33531,0.710902 4.49415,1.949219 1.14431,1.212679 1.75037,2.885283 1.65039,4.572265 -0.46747,7.815329 -4.8432,23.296481 -17.83399,34.050781 3.94399,0.8734 8.22831,1.34375 12.75,1.34375 v 10.25586 c -9.0169,0 -17.2939,-1.64001 -24.32812,-4.55078 -6.57103,2.82104 -14.50318,4.55078 -24.03711,4.55078 v -10.25586 c 4.38581,0 8.4812,-0.42726 12.27734,-1.2793 -7.18891,-5.99588 -11.43555,-13.939895 -11.43555,-22.886715 h 10.25391 c 0,7.569203 4.83786,14.114925 12.7207,18.478515 3.96621,-2.27324 7.4359,-5.22305 10.39453,-8.8457 4.8097,-5.884787 7.26598,-12.408702 8.33594,-17.126956 H 117.12305 V 73.015625 h 19.05468 z M 50.388672,72.957031 H 64.037109 L 86.041016,125.16406 H 71.869141 l -3.728516,-9.62109 H 45.318359 l -3.802734,9.62109 H 27.865234 Z m 6.414062,13.199219 -7.607422,19.31836 h 15.066407 z m 43.195313,8.613281 c 3.387093,0 6.138673,2.49785 6.138673,5.572269 v 17.53906 c 0,3.07703 -2.75158,5.57422 -6.138673,5.57422 -3.387094,0 -6.13086,-2.49719 -6.130859,-5.57422 V 100.3418 c 0,-3.074419 2.743765,-5.572269 6.130859,-5.572269 z"
       transform="matrix(4.7659149,0,0,4.7659149,35.408508,37.845988)"
       style="fill:#478cbf;fill-opacity:1" /><path
       d="m 0,0 -1.121,-16.063 c -0.135,-1.936 -1.675,-3.477 -3.611,-3.616 l -38.555,-2.751 c -0.094,-0.007 -0.188,-0.01 -0.281,-0.01 -1.916,0 -3.569,1.406 -3.852,3.33 l -2.211,14.994 H -81.09 l -2.211,-14.994 c -0.297,-2.018 -2.101,-3.469 -4.133,-3.32 l -38.555,2.751 c -1.936,0.139 -3.476,1.68 -3.611,3.616 L -130.721,0 -163.268,3.138 c 0.015,-3.498 0.06,-7.33 0.06,-8.093 0,-34.374 43.605,-50.896 97.781,-51.086 h 0.066 0.067 c 54.176,0.19 97.766,16.712 97.766,51.086 0,0.777 0.047,4.593 0.063,8.093 z"
       transform="matrix(4.162611,0,0,-4.162611,784.07144,718.72312)"
       id="path859"
       style="fill:#478cbf;fill-opacity:1" /></g></g><g
   inkscape:groupmode="layer"
   id="layer1"
   inkscape:label="Layer 3"
   style="display:none"><g
     id="g6427"
     transform="translate(384.1328,359.11914)"><path
       d="m 0,0 c 0,0 -0.325,1.994 -0.515,1.976 l -36.182,-3.491 c -2.879,-0.278 -5.115,-2.574 -5.317,-5.459 l -0.994,-14.247 -27.992,-1.997 -1.904,12.912 c -0.424,2.872 -2.932,5.037 -5.835,5.037 h -38.188 c -2.902,0 -5.41,-2.165 -5.834,-5.037 l -1.905,-12.912 -27.992,1.997 -0.994,14.247 c -0.202,2.886 -2.438,5.182 -5.317,5.46 l -36.2,3.49 c -0.187,0.018 -0.324,-1.978 -0.511,-1.978 l -0.049,-7.83 30.658,-4.944 1.004,-14.374 c 0.203,-2.91 2.551,-5.263 5.463,-5.472 l 38.551,-2.75 c 0.146,-0.01 0.29,-0.016 0.434,-0.016 2.897,0 5.401,2.166 5.825,5.038 l 1.959,13.286 h 28.005 l 1.959,-13.286 c 0.423,-2.871 2.93,-5.037 5.831,-5.037 0.142,0 0.284,0.005 0.423,0.015 l 38.556,2.75 c 2.911,0.209 5.26,2.562 5.463,5.472 l 1.003,14.374 30.645,4.966 z"
       fill="#ffffff"
       transform="matrix(4.162611,0,0,-4.162611,919.24059,673.15214)"
       id="path6397" /><path
       d="m 0,0 v -47.514 -6.035 -5.492 c 0.108,-0.001 0.216,-0.005 0.323,-0.015 l 36.196,-3.49 c 1.896,-0.183 3.382,-1.709 3.514,-3.609 l 1.116,-15.978 31.574,-2.253 2.175,14.747 c 0.282,1.912 1.922,3.329 3.856,3.329 h 38.188 c 1.933,0 3.573,-1.417 3.855,-3.329 l 2.175,-14.747 31.575,2.253 1.115,15.978 c 0.133,1.9 1.618,3.425 3.514,3.609 l 36.182,3.49 c 0.107,0.01 0.214,0.014 0.322,0.015 v 4.711 l 0.015,0.005 V 0 c 5.09692,6.4164715 9.92323,13.494208 13.621,19.449 -5.651,9.62 -12.575,18.217 -19.976,26.182 -6.864,-3.455 -13.531,-7.369 -19.828,-11.534 -3.151,3.132 -6.7,5.694 -10.186,8.372 -3.425,2.751 -7.285,4.768 -10.946,7.118 1.09,8.117 1.629,16.108 1.846,24.448 -9.446,4.754 -19.519,7.906 -29.708,10.17 -4.068,-6.837 -7.788,-14.241 -11.028,-21.479 -3.842,0.642 -7.702,0.88 -11.567,0.926 v 0.006 c -0.027,0 -0.052,-0.006 -0.075,-0.006 -0.024,0 -0.049,0.006 -0.073,0.006 V 63.652 C 93.903,63.606 90.046,63.368 86.203,62.726 82.965,69.964 79.247,77.368 75.173,84.205 64.989,81.941 54.915,78.789 45.47,74.035 45.686,65.695 46.225,57.704 47.318,49.587 43.65,47.237 39.795,45.22 36.369,42.469 32.888,39.791 29.333,37.229 26.181,34.097 19.884,38.262 13.219,42.176 6.353,45.631 -1.048,37.666 -7.968,29.069 -13.621,19.449 -9.1783421,12.475308 -4.4130298,5.4661124 0,0 Z"
       fill="#478cbf"
       transform="matrix(4.162611,0,0,-4.162611,104.69892,427.38725)"
       id="path6399" /><path
       d="m 0,0 -1.121,-16.063 c -0.135,-1.936 -1.675,-3.477 -3.611,-3.616 l -38.555,-2.751 c -0.094,-0.007 -0.188,-0.01 -0.281,-0.01 -1.916,0 -3.569,1.406 -3.852,3.33 l -2.211,14.994 H -81.09 l -2.211,-14.994 c -0.297,-2.018 -2.101,-3.469 -4.133,-3.32 l -38.555,2.751 c -1.936,0.139 -3.476,1.68 -3.611,3.616 L -130.721,0 -163.268,3.138 c 0.015,-3.498 0.06,-7.33 0.06,-8.093 0,-34.374 43.605,-50.896 97.781,-51.086 h 0.066 0.067 c 54.176,0.19 97.766,16.712 97.766,51.086 0,0.777 0.047,4.593 0.063,8.093 z"
       fill="#478cbf"
       transform="matrix(4.162611,0,0,-4.162611,784.07144,718.72312)"
       id="path6401" /><path
       d="m 0,0 c 0,-12.052 -9.765,-21.815 -21.813,-21.815 -12.042,0 -21.81,9.763 -21.81,21.815 0,12.044 9.768,21.802 21.81,21.802 C -9.765,21.802 0,12.044 0,0"
       fill="#ffffff"
       transform="matrix(4.162611,0,0,-4.162611,389.21484,527.15132)"
       id="path6403" /><path
       d="m 0,0 c 0,-7.994 -6.479,-14.473 -14.479,-14.473 -7.996,0 -14.479,6.479 -14.479,14.473 0,7.994 6.483,14.479 14.479,14.479 C -6.479,14.479 0,7.994 0,0"
       fill="#414042"
       transform="matrix(4.162611,0,0,-4.162611,367.36686,532.53707)"
       id="path6405" /><path
       d="m 0,0 c -3.878,0 -7.021,2.858 -7.021,6.381 v 20.081 c 0,3.52 3.143,6.381 7.021,6.381 3.878,0 7.028,-2.861 7.028,-6.381 V 6.381 C 7.028,2.858 3.878,0 0,0"
       fill="#ffffff"
       transform="matrix(4.162611,0,0,-4.162611,511.99336,626.21982)"
       id="path6407" /><path
       d="m 0,0 c 0,-12.052 9.765,-21.815 21.815,-21.815 12.041,0 21.808,9.763 21.808,21.815 0,12.044 -9.767,21.802 -21.808,21.802 C 9.765,21.802 0,12.044 0,0"
       fill="#ffffff"
       transform="matrix(4.162611,0,0,-4.162611,634.78706,527.15132)"
       id="path6409" /><path
       d="m 0,0 c 0,-7.994 6.477,-14.473 14.471,-14.473 8.002,0 14.479,6.479 14.479,14.473 0,7.994 -6.477,14.479 -14.479,14.479 C 6.477,14.479 0,7.994 0,0"
       fill="#414042"
       transform="matrix(4.162611,0,0,-4.162611,656.64056,532.53707)"
       id="path6411" /></g></g></svg>
