<?xml version="1.0" encoding="UTF-8" standalone="no"?>
<svg
   width="1024px"
   height="1024px"
   viewBox="0 0 1024 1024"
   t="1569683368540"
   class="icon"
   version="1.1"
   p-id="9723"
   id="svg840"
   sodipodi:docname="clear-icon.svg"
   inkscape:version="1.1 (c68e22c387, 2021-05-23)"
   xmlns:inkscape="http://www.inkscape.org/namespaces/inkscape"
   xmlns:sodipodi="http://sodipodi.sourceforge.net/DTD/sodipodi-0.dtd"
   xmlns="http://www.w3.org/2000/svg"
   xmlns:svg="http://www.w3.org/2000/svg">
  <sodipodi:namedview
     id="namedview842"
     pagecolor="#ffffff"
     bordercolor="#666666"
     borderopacity="1.0"
     inkscape:pageshadow="2"
     inkscape:pageopacity="0.0"
     inkscape:pagecheckerboard="0"
     showgrid="false"
     inkscape:zoom="0.74902344"
     inkscape:cx="512"
     inkscape:cy="512"
     inkscape:window-width="1920"
     inkscape:window-height="1017"
     inkscape:window-x="-8"
     inkscape:window-y="584"
     inkscape:window-maximized="1"
     inkscape:current-layer="svg840" />
  <defs
     id="defs836">
    <style
       type="text/css"
       id="style834" />
  </defs>
  <path
     d="M899.1 869.6l-53-305.6H864c14.4 0 26-11.6 26-26V346c0-14.4-11.6-26-26-26H618V138c0-14.4-11.6-26-26-26H432c-14.4 0-26 11.6-26 26v182H160c-14.4 0-26 11.6-26 26v192c0 14.4 11.6 26 26 26h17.9l-53 305.6c-0.3 1.5-0.4 3-0.4 4.4 0 14.4 11.6 26 26 26h723c1.5 0 3-0.1 4.4-0.4 14.2-2.4 23.7-15.9 21.2-30zM204 390h272V182h72v208h272v104H204V390z m468 440V674c0-4.4-3.6-8-8-8h-48c-4.4 0-8 3.6-8 8v156H416V674c0-4.4-3.6-8-8-8h-48c-4.4 0-8 3.6-8 8v156H202.8l45.1-260H776l45.1 260H672z"
     p-id="9724"
     id="path838"
     style="fill:#ffffff;fill-opacity:1" />
</svg>
