<?xml version="1.0" encoding="UTF-8" standalone="no"?>
<!-- Generator: Adobe Illustrator 19.0.0, SVG Export Plug-In . SVG Version: 6.00 Build 0)  -->

<svg
   version="1.1"
   id="Layer_1"
   x="0px"
   y="0px"
   viewBox="0 0 330 330"
   style="enable-background:new 0 0 330 330;"
   xml:space="preserve"
   sodipodi:docname="edit-icon.svg"
   inkscape:version="1.1 (c68e22c387, 2021-05-23)"
   xmlns:inkscape="http://www.inkscape.org/namespaces/inkscape"
   xmlns:sodipodi="http://sodipodi.sourceforge.net/DTD/sodipodi-0.dtd"
   xmlns="http://www.w3.org/2000/svg"
   xmlns:svg="http://www.w3.org/2000/svg"><defs
   id="defs1625" /><sodipodi:namedview
   id="namedview1623"
   pagecolor="#ffffff"
   bordercolor="#666666"
   borderopacity="1.0"
   inkscape:pageshadow="2"
   inkscape:pageopacity="0.0"
   inkscape:pagecheckerboard="0"
   showgrid="false"
   inkscape:zoom="2.3242424"
   inkscape:cx="165"
   inkscape:cy="165"
   inkscape:window-width="1920"
   inkscape:window-height="1017"
   inkscape:window-x="-8"
   inkscape:window-y="584"
   inkscape:window-maximized="1"
   inkscape:current-layer="Layer_1" />
<g
   id="XMLID_23_"
   style="fill:#ffffff;fill-opacity:1">
	<path
   id="XMLID_24_"
   d="m 75,180 v 60 c 0,8.284 6.716,15 15,15 h 60 c 3.978,0 7.793,-1.581 10.606,-4.394 l 164.999,-165 c 5.858,-5.858 5.858,-15.355 0,-21.213 l -60,-60 C 262.794,1.581 258.978,0 255,0 c -3.978,0 -7.794,1.581 -10.606,4.394 l -165,165 C 76.58,172.206 75,176.022 75,180 Z m 30,6.213 150,-150 38.787,38.787 -150,150 H 105 Z"
   style="fill:#ffffff;fill-opacity:1" />
	<path
   id="XMLID_27_"
   d="m 315,150.001 c -8.284,0 -15,6.716 -15,15 V 300 H 30 V 30 h 135 c 8.284,0 15,-6.716 15,-15 C 180,6.716 173.284,0 165,0 H 15 C 6.716,0 0,6.716 0,15 v 300 c 0,8.284 6.716,15 15,15 h 300 c 8.284,0 15,-6.716 15,-15 V 165.001 c 0,-8.285 -6.716,-15 -15,-15 z"
   style="fill:#ffffff;fill-opacity:1" />
</g>
<g
   id="g1592"
   style="fill:#ffffff;fill-opacity:1">
</g>
<g
   id="g1594"
   style="fill:#ffffff;fill-opacity:1">
</g>
<g
   id="g1596"
   style="fill:#ffffff;fill-opacity:1">
</g>
<g
   id="g1598"
   style="fill:#ffffff;fill-opacity:1">
</g>
<g
   id="g1600"
   style="fill:#ffffff;fill-opacity:1">
</g>
<g
   id="g1602"
   style="fill:#ffffff;fill-opacity:1">
</g>
<g
   id="g1604"
   style="fill:#ffffff;fill-opacity:1">
</g>
<g
   id="g1606"
   style="fill:#ffffff;fill-opacity:1">
</g>
<g
   id="g1608"
   style="fill:#ffffff;fill-opacity:1">
</g>
<g
   id="g1610"
   style="fill:#ffffff;fill-opacity:1">
</g>
<g
   id="g1612"
   style="fill:#ffffff;fill-opacity:1">
</g>
<g
   id="g1614"
   style="fill:#ffffff;fill-opacity:1">
</g>
<g
   id="g1616"
   style="fill:#ffffff;fill-opacity:1">
</g>
<g
   id="g1618"
   style="fill:#ffffff;fill-opacity:1">
</g>
<g
   id="g1620"
   style="fill:#ffffff;fill-opacity:1">
</g>
</svg>
